<svg width="75" height="66" viewBox="0 0 75 66" fill="none" xmlns="http://www.w3.org/2000/svg">
<path d="M39.0786 31.0607C44.9197 34.3305 42.7344 39.6508 44.8626 46.6692C47.9918 56.9665 42.3763 61.5151 36.6871 60.0434C30.9979 58.5716 30.3833 51.9301 25.0753 49.248L25.0271 49.2208L24.9789 49.1937C19.8079 46.3456 12.2229 48.6743 8.24647 45.021C4.27003 41.3678 6.88916 35.251 19.5078 33.2704C28.1076 31.9226 33.0563 28.039 39.0786 31.0607Z" fill="#243A8E" fill-opacity="0.12"/>
<path d="M56.2339 34.9997C50.0557 36.9932 46.3128 41.2843 47.8747 44.5683C49.4367 47.8523 55.6964 48.9112 61.8732 46.9121C68.0501 44.9131 71.7875 40.6286 70.2311 37.338C68.6746 34.0473 62.404 33.0017 56.2339 34.9997Z" fill="#243A8E" fill-opacity="0.12"/>
<path d="M27.5536 19.8469C27.9502 25.3195 24.8168 29.9203 20.5485 30.1353C16.2802 30.3503 12.4993 26.0824 12.077 20.6196C11.6547 15.1567 14.8125 10.5405 19.0821 10.3311C23.3516 10.1218 27.1368 14.3774 27.5536 19.8469Z" fill="#243A8E" fill-opacity="0.12"/>
<path d="M50.6963 18.8438C45.9561 23.0881 44.7974 28.5837 48.117 31.1077C51.4366 33.6316 57.9548 32.2385 62.6938 27.9886C67.4328 23.7387 68.5927 18.2487 65.2799 15.7237C61.967 13.1987 55.442 14.5928 50.6963 18.8438Z" fill="#243A8E" fill-opacity="0.12"/>
<path d="M47.6153 17.2129C44.9443 22.5512 39.3995 25.7239 35.2402 24.3026C31.0809 22.8812 29.8687 17.3913 32.5465 12.052C35.2242 6.71259 40.7623 3.54089 44.9229 4.96781C49.0835 6.39473 50.2931 11.8735 47.6153 17.2129Z" fill="#243A8E" fill-opacity="0.12"/>
</svg>
