<svg width="70" height="46" viewBox="0 0 70 46" fill="none" xmlns="http://www.w3.org/2000/svg">
<path d="M49.9825 30.6621C49.7151 32.6947 48.7169 34.5604 47.1743 35.9108C45.6318 37.2612 43.6505 38.0039 41.6004 38.0002C29.6902 38.0002 20 28.31 20 16.3998C19.9963 14.3497 20.7391 12.3684 22.0894 10.8259C23.4398 9.28337 25.3056 8.28516 27.3381 8.0177C27.8521 7.95494 28.3726 8.06009 28.8219 8.31746C29.2713 8.57483 29.6253 8.97061 29.8312 9.44572L32.9992 16.5183V16.5363C33.1569 16.9 33.222 17.2971 33.1887 17.6921C33.1555 18.0871 33.0249 18.4677 32.8087 18.7999C32.7817 18.8404 32.7532 18.8779 32.7232 18.9154L29.6002 22.6174C30.7237 24.9005 33.1117 27.2675 35.4248 28.394L39.0758 25.2875C39.1117 25.2574 39.1493 25.2293 39.1883 25.2035C39.5203 24.9821 39.9022 24.8469 40.2995 24.8103C40.6968 24.7736 41.097 24.8366 41.4639 24.9935L41.4834 25.0025L48.55 28.169C49.026 28.3742 49.4227 28.7279 49.6809 29.1773C49.9391 29.6267 50.0449 30.1476 49.9825 30.6621Z" fill="white"/>
</svg>
