<svg width="34" height="28" viewBox="0 0 34 28" fill="none" xmlns="http://www.w3.org/2000/svg">
<path d="M2 5.33333C2 4.44928 2.35119 3.60143 2.97631 2.97631C3.60143 2.35119 4.44928 2 5.33333 2H28.6667C29.5507 2 30.3986 2.35119 31.0237 2.97631C31.6488 3.60143 32 4.44928 32 5.33333V22C32 22.8841 31.6488 23.7319 31.0237 24.357C30.3986 24.9821 29.5507 25.3333 28.6667 25.3333H5.33333C4.44928 25.3333 3.60143 24.9821 2.97631 24.357C2.35119 23.7319 2 22.8841 2 22V5.33333Z" stroke="white" stroke-width="3.39394" stroke-linecap="round" stroke-linejoin="round"/>
<path d="M2 5.3335L17 15.3335L32 5.3335" stroke="white" stroke-width="3.39394" stroke-linecap="round" stroke-linejoin="round"/>
</svg>
