<svg width="17" height="17" viewBox="0 0 17 17" fill="none" xmlns="http://www.w3.org/2000/svg">
<path d="M5.66811 2.47738C6.5351 -0.190939 10.3101 -0.190939 11.177 2.47738C11.5648 3.67069 12.6768 4.47862 13.9315 4.47862C16.7371 4.47862 17.9037 8.06881 15.6339 9.71792C14.6188 10.4554 14.194 11.7627 14.5818 12.956C15.4487 15.6243 12.3947 17.8432 10.1249 16.1941C9.10984 15.4566 7.73531 15.4566 6.72022 16.1941C4.45042 17.8432 1.39641 15.6243 2.2634 12.956C2.65113 11.7627 2.22638 10.4554 1.21129 9.71792C-1.05852 8.06881 0.108007 4.47862 2.91364 4.47862C4.16836 4.47862 5.28038 3.67069 5.66811 2.47738Z" fill="#243A8E"/>
</svg>
