<svg width="25" height="25" viewBox="0 0 25 25" fill="none" xmlns="http://www.w3.org/2000/svg">
<path d="M24.5454 21.3043C24.9741 21.7806 24.9741 22.4951 24.4978 22.9238L23.1642 24.2574C22.7355 24.7337 22.021 24.7337 21.5447 24.2574L16.8294 19.542C16.5912 19.3039 16.4959 19.0181 16.4959 18.7323V17.9226C14.7813 19.2562 12.6855 20.0183 10.3993 20.0183C4.92185 20.0183 0.492259 15.5887 0.492259 10.1113C0.492259 4.68145 4.92185 0.204227 10.3993 0.204227C15.8291 0.204227 20.3064 4.68145 20.3064 10.1113C20.3064 12.4451 19.4966 14.5409 18.2106 16.2079H18.9727C19.2585 16.2079 19.5443 16.3508 19.7824 16.5413L24.5454 21.3043ZM10.3993 16.2079C13.7334 16.2079 16.4959 13.493 16.4959 10.1113C16.4959 6.77717 13.7334 4.01463 10.3993 4.01463C7.01757 4.01463 4.30266 6.77717 4.30266 10.1113C4.30266 13.493 7.01757 16.2079 10.3993 16.2079Z" fill="#636363"/>
</svg>
